<svg width="44" height="44" viewBox="0 0 44 44" fill="none" xmlns="http://www.w3.org/2000/svg">
<g clip-path="url(#clip0_123_372)">
<path d="M43.0832 11.9295C42.8341 11.0407 42.3488 10.2361 41.6789 9.60114C40.9901 8.94665 40.1459 8.47848 39.2259 8.24081C35.7829 7.33331 21.9889 7.33331 21.9889 7.33331C16.2383 7.26788 10.4892 7.55565 4.77391 8.19498C3.85393 8.4502 3.01128 8.92884 2.32091 9.58831C1.64258 10.241 1.15124 11.0458 0.894578 11.9276C0.278015 15.2492 -0.0215538 18.6218 -8.92006e-05 22C-0.0220892 25.3751 0.276744 28.7466 0.894578 32.0723C1.14574 32.9505 1.63524 33.7516 2.31541 34.3988C2.99558 35.046 3.84258 35.5135 4.77391 35.761C8.26274 36.6666 21.9889 36.6666 21.9889 36.6666C27.7468 36.7322 33.5033 36.4444 39.2259 35.805C40.1459 35.5673 40.9901 35.0991 41.6789 34.4446C42.3486 33.8098 42.8333 33.0051 43.0814 32.1163C43.7141 28.7961 44.0217 25.4221 43.9999 22.0421C44.0475 18.6479 43.7403 15.258 43.0832 11.9276V11.9295ZM17.6036 28.2773V15.7245L29.0802 22.0018L17.6036 28.2773Z" fill="white"/>
</g>
<defs>
<clipPath id="clip0_123_372">
<rect width="44" height="44" fill="white"/>
</clipPath>
</defs>
</svg>
