<svg width="44" height="44" viewBox="0 0 44 44" fill="none" xmlns="http://www.w3.org/2000/svg">
<path fill-rule="evenodd" clip-rule="evenodd" d="M13.6858 1.95425C15.8363 1.85525 16.5219 1.83325 21.9999 1.83325C27.4779 1.83325 28.1636 1.85709 30.3123 1.95425C32.4609 2.05142 33.9276 2.39425 35.2109 2.89109C36.5547 3.39892 37.7739 4.19275 38.7822 5.21942C39.8089 6.22592 40.6009 7.44325 41.1069 8.78892C41.6056 10.0723 41.9466 11.5389 42.0456 13.6839C42.1446 15.8381 42.1666 16.5238 42.1666 21.9999C42.1666 27.4779 42.1427 28.1636 42.0456 30.3141C41.9484 32.4591 41.6056 33.9258 41.1069 35.2091C40.6009 36.5549 39.8076 37.7743 38.7822 38.7822C37.7739 39.8089 36.5547 40.6009 35.2109 41.1069C33.9276 41.6056 32.4609 41.9466 30.3159 42.0456C28.1636 42.1446 27.4779 42.1666 21.9999 42.1666C16.5219 42.1666 15.8363 42.1427 13.6858 42.0456C11.5408 41.9484 10.0741 41.6056 8.79075 41.1069C7.44494 40.6008 6.22559 39.8076 5.21759 38.7822C4.19162 37.7751 3.39766 36.5564 2.89109 35.2109C2.39425 33.9276 2.05325 32.4609 1.95425 30.3159C1.85525 28.1617 1.83325 27.4761 1.83325 21.9999C1.83325 16.5219 1.85709 15.8363 1.95425 13.6876C2.05142 11.5389 2.39425 10.0723 2.89109 8.78892C3.39841 7.4434 4.19297 6.22466 5.21942 5.21759C6.22599 4.19184 7.44412 3.3979 8.78892 2.89109C10.0723 2.39425 11.5389 2.05325 13.6839 1.95425H13.6858ZM30.1491 5.58425C28.0224 5.48709 27.3844 5.46692 21.9999 5.46692C16.6154 5.46692 15.9774 5.48709 13.8508 5.58425C11.8836 5.67409 10.8166 6.00225 10.1053 6.27909C9.16475 6.64575 8.49192 7.08025 7.78609 7.78609C7.117 8.43701 6.60208 9.22944 6.27909 10.1053C6.00225 10.8166 5.67409 11.8836 5.58425 13.8508C5.48709 15.9774 5.46692 16.6154 5.46692 21.9999C5.46692 27.3844 5.48709 28.0224 5.58425 30.1491C5.67409 32.1162 6.00225 33.1833 6.27909 33.8946C6.60175 34.7691 7.11692 35.5629 7.78609 36.2138C8.43692 36.8829 9.23075 37.3981 10.1053 37.7208C10.8166 37.9976 11.8836 38.3258 13.8508 38.4156C15.9774 38.5128 16.6136 38.5329 21.9999 38.5329C27.3863 38.5329 28.0224 38.5128 30.1491 38.4156C32.1162 38.3258 33.1833 37.9976 33.8946 37.7208C34.8351 37.3541 35.5079 36.9196 36.2138 36.2138C36.8829 35.5629 37.3981 34.7691 37.7208 33.8946C37.9976 33.1833 38.3258 32.1162 38.4156 30.1491C38.5128 28.0224 38.5329 27.3844 38.5329 21.9999C38.5329 16.6154 38.5128 15.9774 38.4156 13.8508C38.3258 11.8836 37.9976 10.8166 37.7208 10.1053C37.3541 9.16475 36.9196 8.49192 36.2138 7.78609C35.5628 7.11705 34.7704 6.60214 33.8946 6.27909C33.1833 6.00225 32.1162 5.67409 30.1491 5.58425ZM19.4241 28.2168C20.8626 28.8156 22.4644 28.8964 23.956 28.4454C25.4475 27.9944 26.7361 27.0396 27.6019 25.744C28.4676 24.4485 28.8567 22.8925 28.7027 21.3419C28.5487 19.7914 27.8611 18.3424 26.7574 17.2424C26.0539 16.5393 25.2031 16.0009 24.2665 15.666C23.3299 15.3311 22.3307 15.2081 21.3408 15.3057C20.3509 15.4033 19.395 15.7192 18.5419 16.2307C17.6888 16.7421 16.9596 17.4363 16.407 18.2633C15.8543 19.0903 15.4919 20.0296 15.3459 21.0135C15.1998 21.9974 15.2737 23.0015 15.5622 23.9534C15.8508 24.9053 16.3468 25.7814 17.0146 26.5186C17.6823 27.2558 18.5053 27.8358 19.4241 28.2168ZM14.6703 14.6703C15.6328 13.7077 16.7755 12.9442 18.0331 12.4232C19.2908 11.9023 20.6387 11.6342 21.9999 11.6342C23.3612 11.6342 24.7091 11.9023 25.9667 12.4232C27.2243 12.9442 28.367 13.7077 29.3296 14.6703C30.2921 15.6328 31.0557 16.7755 31.5766 18.0331C32.0975 19.2908 32.3656 20.6387 32.3656 21.9999C32.3656 23.3612 32.0975 24.7091 31.5766 25.9667C31.0557 27.2243 30.2921 28.367 29.3296 29.3296C27.3856 31.2735 24.7491 32.3656 21.9999 32.3656C19.2508 32.3656 16.6142 31.2735 14.6703 29.3296C12.7263 27.3856 11.6342 24.7491 11.6342 21.9999C11.6342 19.2508 12.7263 16.6142 14.6703 14.6703ZM34.6646 13.1779C34.9031 12.9529 35.0941 12.6823 35.2261 12.3822C35.3582 12.0821 35.4287 11.7585 35.4335 11.4306C35.4383 11.1028 35.3772 10.7773 35.254 10.4734C35.1307 10.1696 34.9477 9.89352 34.7158 9.66166C34.484 9.42979 34.208 9.24681 33.9041 9.12353C33.6002 9.00026 33.2747 8.93921 32.9469 8.94399C32.619 8.94877 32.2954 9.01928 31.9953 9.15136C31.6952 9.28344 31.4246 9.47439 31.1996 9.71292C30.762 10.1768 30.5224 10.793 30.5317 11.4306C30.541 12.0683 30.7984 12.6772 31.2494 13.1281C31.7003 13.5791 32.3092 13.8365 32.9469 13.8458C33.5845 13.8551 34.2007 13.6155 34.6646 13.1779Z" fill="white"/>
</svg>
